<svg xmlns="http://www.w3.org/2000/svg" fill="none" viewBox="16.51 16 193.17 62.17">
<circle cx="64.8079" cy="24" r="8" fill="#1E1E37"/>
<path fill-rule="evenodd" clip-rule="evenodd" d="M193.675 77.8121C202.511 77.8121 209.675 70.6487 209.675 61.8121L209.675 31.3154C209.675 28.0017 206.989 25.3154 203.675 25.3154L152.675 25.3154C149.361 25.3154 146.675 28.0017 146.675 31.3154L146.675 48.0334C153.436 49.4889 158.503 55.5014 158.503 62.6973C158.503 69.0074 154.607 74.4074 149.089 76.6228C150.089 77.3698 151.33 77.8121 152.675 77.8121L193.675 77.8121ZM176.666 50.5829C176.666 44.7029 172.386 42.3829 168.026 42.3829C163.626 42.3829 159.226 44.7029 159.226 50.5829V56.2629C159.226 61.5829 163.466 64.0629 167.986 64.0629C171.386 64.0629 173.986 62.9829 176.106 61.3029C176.426 61.0629 176.466 60.7429 176.226 60.4629L174.586 58.2629C174.386 57.9829 174.066 57.9429 173.786 58.1429C172.306 59.1429 170.626 59.9829 168.146 59.9829C165.586 59.9829 163.906 58.7429 163.906 56.3029V55.1829H176.066C176.466 55.1829 176.666 54.9829 176.666 54.6229V50.5829ZM172.146 50.5429V51.5829H163.906V50.5429C163.906 47.5829 165.666 46.4629 168.026 46.4629C170.266 46.4629 172.146 47.6229 172.146 50.5429ZM194.403 42.8629C194.043 42.8629 193.843 43.0629 193.843 43.4229V59.4229C192.923 59.7429 191.523 59.9029 190.203 59.9029C187.363 59.9029 185.683 58.7429 185.683 54.9829V43.4229C185.683 43.0629 185.483 42.8629 185.123 42.8629H181.643C181.243 42.8629 181.043 43.0629 181.043 43.4229V55.0629C181.043 61.4629 184.763 64.0629 190.203 64.0629C193.003 64.0629 195.763 63.4629 198.043 62.4629C198.323 62.3429 198.483 62.1029 198.483 61.7429V43.4229C198.483 43.0629 198.243 42.8629 197.883 42.8629H194.403Z" fill="#FF7D81"/>
<path fill-rule="evenodd" clip-rule="evenodd" d="M53.3595 63.5334C53.3595 56.3334 48.1595 51.6934 38.2395 50.0934C33.3595 49.3734 32.6395 48.8934 32.6395 47.6134C32.6395 46.1734 33.9195 45.8534 36.1595 45.8534C39.1195 45.8534 42.2395 46.5734 44.7995 47.8534C45.6795 48.3334 46.3995 48.1734 46.9595 47.2934L51.5195 40.0134C52.0795 39.0534 51.9195 38.2534 50.9595 37.7734C45.9195 35.2134 41.1995 34.1734 36.2395 34.1734C24.1595 34.1734 17.9195 39.2134 17.9195 47.8534C17.9195 55.2134 23.1195 59.9334 34.1595 61.6134C36.9595 62.0134 38.3995 62.7334 38.3995 63.7734C38.3995 65.0534 36.9595 65.7734 34.2395 65.7734C30.3995 65.7734 26.8795 64.7334 23.4395 62.5734C22.5595 62.0134 21.8395 62.1734 21.2795 63.1334L16.7995 70.6534C16.3195 71.5334 16.3995 72.3334 17.2795 72.8934C22.3995 76.4134 28.5595 78.1734 34.2395 78.1734C47.2795 78.1734 53.3595 73.2134 53.3595 63.5334ZM70.6326 77.8615C71.6726 77.8615 72.2326 77.3015 72.2326 76.2615V37.7015C72.2326 36.6615 71.6726 36.1015 70.6326 36.1015H59.0326C57.9926 36.1015 57.4326 36.6615 57.4326 37.7015V70.332C57.4326 75.3945 58.7351 77.8615 63.5788 77.8615H70.6326ZM91.7226 60.0134V48.8934H97.6426C98.6826 48.8934 99.2426 48.3334 99.2426 47.2934V38.0934C99.2426 37.0534 98.6826 36.4934 97.6426 36.4934H91.7626L91.7226 27.8934C91.6426 26.8534 91.1738 26.3734 90.2138 26.3734H83.3701C79.9013 26.3734 76.9226 27.6077 76.9226 32.4514V62.3334C76.9226 72.3334 82.9226 78.1734 93.0826 78.1734C95.4826 78.1734 97.3226 77.9334 98.6826 77.5334C99.5626 77.2934 99.9626 76.5734 99.9626 75.6934V66.3334C99.9626 65.2134 99.3226 64.8134 98.2026 64.9734C97.5626 65.0534 96.9226 65.1334 96.2026 65.1334C93.1626 65.1334 91.7226 63.5334 91.7226 60.0134ZM140.404 48.0179C139.062 38.2886 132.072 34.1734 122.318 34.1734C111.038 34.1734 103.038 39.5334 103.038 51.6134V60.5734C103.038 72.0934 111.278 78.1734 122.798 78.1734C128.029 78.1734 132.168 77.0826 135.504 75.3889C132.017 73.1867 129.501 69.5871 128.741 65.3768C127.006 65.8595 125.182 66.0934 123.358 66.0934C119.838 66.0934 117.918 64.3334 117.918 60.9734V60.5734H128.652C129.539 54.3174 134.285 49.3032 140.404 48.0179ZM126.478 50.7334V52.0134H117.918V50.7334C117.918 47.6134 119.358 45.9334 122.158 45.9334C124.958 45.9334 126.478 47.6134 126.478 50.7334Z" fill="#1E1E37"/>
<circle cx="143.503" cy="63.0173" r="8" fill="#1E1E37"/>
</svg>