<svg width="85" height="52" viewBox="0 0 85 52" fill="none" xmlns="http://www.w3.org/2000/svg">
<path d="M47.438 13.4996C45.9649 11.0755 44.007 8.83787 41.1167 8.0547C36.3991 6.73078 30.0965 9.47186 29.0709 15.3269C28.5861 18.2358 28.9218 33.1532 28.9218 33.1532C28.9218 33.1532 35.0379 33.1719 37.9281 33.1532C40.893 33.1159 43.9137 33.1346 46.0395 32.2022C48.1652 31.2699 50.5706 28.1745 51.3165 25.4894C52.137 22.4873 51.5962 19.5225 52.1556 17.1543C52.4539 15.849 53.5168 14.7862 54.3373 14.1895C54.9899 13.7233 56.0901 13.3131 56.0901 13.3131C56.0901 13.3131 56.1274 8.20388 56.1087 7.45801C51.9505 7.56989 49.4145 10.4601 47.438 13.4996V13.4996ZM32.9495 27.6338C32.9308 25.0232 32.763 17.3035 32.8562 16.7814C33.0427 15.5693 33.5834 14.5065 34.3666 13.6674C34.6277 13.3504 34.926 13.0893 35.2803 12.8842C36.4364 12.0824 37.8908 11.7095 39.3826 11.9146C42.5152 12.3807 44.6969 15.2896 44.2307 18.4409C44.0816 19.4479 43.69 20.3429 43.1119 21.1074C43.0746 21.1447 43.056 21.182 43.0187 21.2193C41.788 22.7483 39.7928 23.6061 37.7044 23.3077C36.2872 23.1026 35.0752 22.3941 34.1988 21.3871C34.2361 23.084 34.2361 24.3893 34.2174 26.0302C36.7907 27.1676 39.2148 27.4287 42.422 26.4218C43.9324 25.9556 45.1817 24.8181 45.7411 24.1468C43.1119 29.0882 38.7113 27.4473 32.9495 27.6338V27.6338Z" fill="#FFCC00"/>
<path d="M47.438 10.773C45.9649 8.34891 44.007 6.1113 41.1167 5.32814C36.3991 4.00422 30.0965 6.74529 29.0709 12.6004C28.5861 15.5093 28.9218 30.4267 28.9218 30.4267C28.9218 30.4267 35.0379 30.4453 37.9281 30.4267C40.893 30.3894 43.9137 30.408 46.0395 29.4757C48.1652 28.5433 50.5706 25.448 51.3165 22.7629C52.137 19.7607 51.5962 16.7959 52.1556 14.4278C52.4539 13.1225 53.5168 12.0596 54.3373 11.4629C54.9899 10.9968 56.0901 10.5865 56.0901 10.5865C56.0901 10.5865 56.1274 5.47732 56.1087 4.73145C51.9505 4.84333 49.4145 7.73357 47.438 10.773V10.773ZM32.9495 24.9072C32.9308 22.2967 32.763 14.5769 32.8562 14.0548C33.0427 12.8428 33.5834 11.7799 34.3666 10.9408C34.6277 10.6238 34.926 10.3628 35.2803 10.1577C36.4364 9.35584 37.8908 8.9829 39.3826 9.18802C42.5152 9.65419 44.6969 12.5631 44.2307 15.7144C44.0816 16.7213 43.69 17.6163 43.1119 18.3809C43.0746 18.4182 43.056 18.4555 43.0187 18.4927C41.788 20.0218 39.7928 20.8795 37.7044 20.5812C36.2872 20.3761 35.0752 19.6675 34.1988 18.6606C34.2361 20.3574 34.2361 21.6627 34.2174 23.3036C36.7907 24.4411 39.2148 24.7021 42.422 23.6952C43.9324 23.229 45.1817 22.0916 45.7411 21.4203C43.1119 26.3617 38.7113 24.7208 32.9495 24.9072V24.9072Z" fill="white"/>
<path d="M8.04634 36.5154C7.63612 36.273 7.1513 36.1611 6.61054 36.1611H4.41023C4.29835 36.1611 4.18647 36.1984 4.11188 36.273C4.03729 36.3476 4 36.4408 4 36.5714V44.2725C4 44.3843 4.03729 44.4962 4.11188 44.5708C4.18647 44.6454 4.2797 44.6827 4.41023 44.6827C4.52211 44.6827 4.63399 44.6454 4.72722 44.5522C4.80181 44.4776 4.8391 44.3843 4.8391 44.2538V41.6992H6.61054C7.1513 41.6992 7.63612 41.5873 8.04634 41.3449C8.45657 41.1212 8.77357 40.7855 9.01597 40.3753C9.25838 39.9651 9.37026 39.4989 9.37026 38.9581C9.37026 38.3987 9.25838 37.9139 9.01597 37.5037C8.79221 37.0748 8.45657 36.7578 8.04634 36.5154V36.5154ZM8.3074 39.8905C8.13958 40.1888 7.91582 40.4126 7.61747 40.5804C7.31912 40.7482 6.98348 40.8228 6.61054 40.8228H4.8391V36.907H6.61054C6.98348 36.907 7.31912 37.0002 7.61747 37.1681C7.91582 37.3359 8.13958 37.5596 8.3074 37.858C8.47522 38.1563 8.54981 38.492 8.54981 38.8836C8.54981 39.2565 8.47522 39.5921 8.3074 39.8905Z" fill="white"/>
<path d="M16.0701 41.8872C16.0701 41.3091 15.921 40.787 15.6599 40.3208C15.3989 39.8547 15.0259 39.4817 14.5784 39.2207C14.1309 38.9596 13.6088 38.8291 13.0307 38.8291C12.4527 38.8291 11.9306 38.9596 11.4644 39.2207C10.9982 39.5004 10.6253 39.8547 10.3642 40.3208C10.1032 40.787 9.97266 41.3091 9.97266 41.8872C9.97266 42.4652 10.1032 42.9873 10.3642 43.4535C10.6253 43.9197 10.9796 44.2926 11.4271 44.5537C11.8746 44.8147 12.3781 44.9452 12.9375 44.9452C13.4596 44.9452 13.9444 44.8147 14.3546 44.5537C14.7089 44.3485 15.0073 44.0875 15.231 43.7705V44.4791C15.231 44.5909 15.2683 44.7028 15.3429 44.7774C15.4175 44.852 15.5107 44.8893 15.6413 44.8893C15.7718 44.8893 15.865 44.852 15.9769 44.7774C16.0515 44.7028 16.0888 44.6096 16.0888 44.4791V41.9058L16.0701 41.8872ZM14.1682 43.8824C13.8325 44.0875 13.4596 44.1807 13.0307 44.1807C12.6018 44.1807 12.2289 44.0688 11.8933 43.8824C11.5576 43.6773 11.2966 43.4162 11.0915 43.0619C10.8863 42.7076 10.7931 42.316 10.7931 41.8872C10.7931 41.4396 10.8863 41.0481 11.0915 40.7124C11.2966 40.3581 11.5576 40.0971 11.8933 39.892C12.2289 39.6869 12.6205 39.5936 13.0307 39.5936C13.4596 39.5936 13.8325 39.6869 14.1682 39.892C14.4852 40.0971 14.7649 40.3768 14.9513 40.7124C15.1565 41.0667 15.2497 41.4396 15.2497 41.8872C15.2497 42.3347 15.1378 42.7076 14.9513 43.0619C14.7649 43.4162 14.5038 43.6773 14.1682 43.8824Z" fill="white"/>
<path d="M21.2728 41.8871C20.9558 41.7193 20.5083 41.5887 19.9676 41.4955C19.576 41.4209 19.259 41.3463 19.0352 41.2531C18.8115 41.1599 18.6623 41.048 18.5691 40.9174C18.4758 40.7869 18.4385 40.6377 18.4385 40.4699C18.4385 40.2275 18.5504 40.0224 18.7928 39.8546C19.0352 39.6868 19.3522 39.6122 19.7624 39.6122C20.0794 39.6122 20.3591 39.6681 20.6015 39.7613C20.844 39.8546 21.0491 40.0224 21.2355 40.2275C21.3288 40.3208 21.422 40.3767 21.5339 40.3953C21.6458 40.414 21.739 40.3953 21.8322 40.3394C21.9255 40.2648 21.9814 40.1716 22.0001 40.0783C22.0001 39.9665 21.9814 39.8732 21.9068 39.78C21.6831 39.5003 21.4034 39.2765 21.0491 39.1087C20.6948 38.9409 20.2659 38.8477 19.7811 38.8477C19.3895 38.8477 19.0352 38.9036 18.6996 39.0341C18.3826 39.1647 18.1215 39.3511 17.9164 39.5935C17.7113 39.8359 17.6181 40.1529 17.6181 40.5259C17.6181 40.9361 17.8045 41.2717 18.1402 41.5701C18.4758 41.8684 19.0166 42.0735 19.7624 42.1854C20.3405 42.2787 20.7507 42.4092 20.9931 42.577C21.2355 42.7448 21.3661 42.9686 21.3661 43.2296C21.3661 43.4907 21.2355 43.7145 20.9931 43.9009C20.7507 44.0874 20.3591 44.1806 19.8184 44.1806C19.4827 44.1806 19.1471 44.1247 18.8674 44.0128C18.5877 43.9009 18.3453 43.7518 18.1775 43.5466C18.1029 43.4534 18.0097 43.4161 17.8978 43.3975C17.7859 43.3975 17.674 43.4161 17.5808 43.4907C17.4875 43.5653 17.4316 43.6585 17.413 43.7704C17.3943 43.8823 17.4316 43.9755 17.5062 44.0687C17.7672 44.3484 18.1029 44.5722 18.5318 44.7214C18.9606 44.8706 19.3895 44.9451 19.8184 44.9451C20.2659 44.9451 20.6761 44.8706 21.0118 44.7587C21.3661 44.6095 21.6458 44.4044 21.8509 44.1433C22.056 43.8823 22.1492 43.5653 22.1492 43.2296C22.1492 42.9686 22.0746 42.7075 21.9441 42.4838C21.8136 42.26 21.5898 42.0549 21.2728 41.8871V41.8871Z" fill="white"/>
<path d="M27.183 41.8871C26.866 41.7193 26.4185 41.5887 25.8777 41.4955C25.4861 41.4209 25.1691 41.3463 24.9454 41.2531C24.7216 41.1599 24.5724 41.048 24.4792 40.9174C24.386 40.7869 24.3487 40.6377 24.3487 40.4699C24.3487 40.2275 24.4606 40.0224 24.703 39.8546C24.9454 39.6868 25.2624 39.6122 25.6726 39.6122C25.9896 39.6122 26.2693 39.6681 26.5117 39.7613C26.7541 39.8546 26.9592 40.0224 27.1457 40.2275C27.2389 40.3208 27.3322 40.3767 27.444 40.3953C27.5559 40.414 27.6492 40.3953 27.7424 40.3394C27.8356 40.2648 27.8916 40.1716 27.9102 40.0783C27.9102 39.9665 27.8916 39.8732 27.817 39.78C27.5932 39.5003 27.3135 39.2765 26.9592 39.1087C26.6049 38.9409 26.1761 38.8477 25.6912 38.8477C25.2997 38.8477 24.9454 38.9036 24.6097 39.0341C24.2927 39.1647 24.0317 39.3511 23.8266 39.5935C23.6215 39.8359 23.5282 40.1529 23.5282 40.5259C23.5282 40.9361 23.7147 41.2717 24.0503 41.5701C24.386 41.8684 24.9267 42.0735 25.6726 42.1854C26.2507 42.2787 26.6609 42.4092 26.9033 42.577C27.1457 42.7448 27.2762 42.9686 27.2762 43.2296C27.2762 43.4907 27.1457 43.7145 26.9033 43.9009C26.6609 44.0874 26.2693 44.1806 25.7285 44.1806C25.3929 44.1806 25.0573 44.1247 24.7776 44.0128C24.4979 43.9009 24.2554 43.7518 24.0876 43.5466C24.013 43.4534 23.9198 43.4161 23.8079 43.3975C23.696 43.3975 23.5842 43.4161 23.4909 43.4907C23.3977 43.5653 23.3418 43.6585 23.3231 43.7704C23.3045 43.8823 23.3418 43.9755 23.4163 44.0687C23.6774 44.3484 24.013 44.5722 24.4419 44.7214C24.8708 44.8706 25.2997 44.9451 25.7285 44.9451C26.1761 44.9451 26.5863 44.8706 26.9219 44.7587C27.2762 44.6095 27.5559 44.4044 27.761 44.1433C27.9662 43.8823 28.0594 43.5653 28.0594 43.2296C28.0594 42.9686 27.9848 42.7075 27.8543 42.4838C27.7237 42.26 27.5 42.0549 27.183 41.8871V41.8871Z" fill="white"/>
<path d="M34.139 39.2207C33.6728 38.9596 33.1507 38.8291 32.5726 38.8291C31.9946 38.8291 31.4725 38.9596 31.0249 39.2207C30.5774 39.4817 30.2045 39.8547 29.9434 40.3022C29.6824 40.7684 29.5332 41.2718 29.5332 41.8499V47.0337C29.5332 47.1642 29.5705 47.2761 29.6451 47.3507C29.7197 47.4253 29.8315 47.4625 29.9621 47.4625C30.0926 47.4625 30.1858 47.4066 30.2791 47.3507C30.3537 47.2761 30.391 47.1642 30.391 47.0337V43.8078C30.6147 44.1434 30.9504 44.4231 31.3419 44.6282C31.7335 44.8334 32.181 44.9452 32.6659 44.9452C33.2253 44.9452 33.7287 44.8147 34.1762 44.5537C34.6238 44.274 34.9781 43.9197 35.2391 43.4535C35.5002 42.9873 35.6307 42.4652 35.6307 41.8872C35.6307 41.3091 35.5002 40.787 35.2391 40.3208C34.9594 39.8547 34.6051 39.4817 34.139 39.2207V39.2207ZM34.5119 43.0619C34.3068 43.4162 34.0457 43.6773 33.7101 43.8824C33.3744 44.0875 33.0015 44.1807 32.5726 44.1807C32.1624 44.1807 31.7895 44.0688 31.4352 43.8824C31.0995 43.6773 30.8385 43.4162 30.652 43.0619C30.4655 42.7076 30.3723 42.316 30.3723 41.8872C30.3723 41.4396 30.4655 41.0481 30.652 40.7124C30.8385 40.3581 31.0995 40.0971 31.4352 39.892C31.7708 39.6869 32.1624 39.5936 32.5726 39.5936C33.0015 39.5936 33.3744 39.6869 33.7101 39.892C34.0457 40.0971 34.3254 40.3768 34.5119 40.7124C34.717 41.0667 34.8102 41.4396 34.8102 41.8872C34.8102 42.3347 34.6984 42.7076 34.5119 43.0619Z" fill="white"/>
<path d="M41.5979 39.2392C41.1318 38.9782 40.6097 38.8477 40.0316 38.8477C39.4536 38.8477 38.9314 38.9782 38.4653 39.2392C38.0178 39.5003 37.6448 39.8546 37.3838 40.3208C37.1227 40.7869 36.9922 41.309 36.9922 41.9057C36.9922 42.4838 37.1227 43.0059 37.3838 43.4721C37.6448 43.9196 37.9991 44.2925 38.4653 44.5536C38.9314 44.8146 39.4536 44.9451 40.0316 44.9451C40.6097 44.9451 41.1318 44.8146 41.6166 44.5536C42.0641 44.2925 42.437 43.9382 42.6981 43.4721C42.9591 43.0059 43.0897 42.4838 43.0897 41.9057C43.071 41.309 42.9405 40.7869 42.6794 40.3208C42.4184 39.8732 42.0455 39.5003 41.5979 39.2392V39.2392ZM41.9522 43.0618C41.7658 43.4161 41.5047 43.6772 41.1691 43.8823C40.8334 44.0874 40.4605 44.1806 40.0316 44.1806C39.6027 44.1806 39.2112 44.0687 38.8942 43.8823C38.5585 43.6772 38.2788 43.3975 38.0923 43.0618C37.8872 42.7075 37.794 42.3346 37.794 41.8871C37.794 41.4582 37.9059 41.0666 38.0923 40.7123C38.2975 40.358 38.5585 40.097 38.8942 39.8919C39.2298 39.6868 39.6027 39.5935 40.0316 39.5935C40.4605 39.5935 40.8334 39.6868 41.1691 39.8919C41.5047 40.097 41.7658 40.358 41.9522 40.7123C42.1387 41.048 42.2319 41.4396 42.2319 41.8871C42.2319 42.3346 42.1387 42.7262 41.9522 43.0618Z" fill="white"/>
<path d="M48.1988 38.9968C48.0123 38.9036 47.7512 38.8477 47.4156 38.8477C46.9867 38.8477 46.6138 38.9409 46.2595 39.146C45.9798 39.3138 45.756 39.5376 45.5509 39.7986V39.3138C45.5509 39.1833 45.495 39.0901 45.439 39.0155C45.3831 38.9409 45.2712 38.9036 45.1407 38.9036C45.0102 38.9036 44.9169 38.9409 44.8424 39.0155C44.7678 39.0714 44.7305 39.1833 44.7305 39.3138V44.479C44.7305 44.6095 44.7678 44.7027 44.8424 44.7773C44.8983 44.8519 45.0102 44.8892 45.1407 44.8892C45.2712 44.8892 45.3645 44.8519 45.439 44.7773C45.5136 44.7214 45.5509 44.6095 45.5509 44.479V40.8988C45.5882 40.6937 45.6628 40.5072 45.7933 40.3394C45.9798 40.0783 46.2409 39.8919 46.5578 39.78C46.8935 39.6495 47.2478 39.6122 47.658 39.6495C47.7885 39.6495 47.9004 39.6681 47.9936 39.6681C48.1055 39.6868 48.1801 39.6681 48.2547 39.6308C48.3293 39.5935 48.3666 39.5189 48.4039 39.4071C48.4598 39.2392 48.3852 39.0901 48.1988 38.9968V38.9968Z" fill="white"/>
<path d="M52.3379 44.0309H52.0396C51.704 44.0309 51.4243 43.919 51.2005 43.6766C50.9767 43.4342 50.8649 43.1358 50.8649 42.7629V39.8354H52.1515C52.2634 39.8354 52.3566 39.7981 52.4312 39.7235C52.5058 39.6489 52.5431 39.5557 52.5431 39.4624C52.5431 39.3692 52.5058 39.276 52.4312 39.2014C52.3566 39.1268 52.2634 39.0895 52.1515 39.0895H50.8649V37.3927C50.8649 37.2808 50.8276 37.1689 50.753 37.0943C50.6784 37.0197 50.5852 36.9824 50.4546 36.9824C50.3241 36.9824 50.2309 37.0197 50.1563 37.0943C50.0817 37.1689 50.0444 37.2621 50.0444 37.3927V39.0895H49.3545C49.2426 39.0895 49.1494 39.1268 49.0748 39.2014C49.0002 39.2573 48.9629 39.3506 48.9629 39.4624C48.9629 39.5743 49.0002 39.6489 49.0748 39.7235C49.1494 39.7981 49.2426 39.8354 49.3545 39.8354H50.0444V42.7629C50.0444 43.1731 50.1376 43.5461 50.3055 43.8631C50.4919 44.1801 50.7343 44.4225 51.0327 44.6089C51.3497 44.7954 51.6853 44.8886 52.0769 44.8886V44.8514H52.2634C52.3939 44.8514 52.5058 44.8141 52.599 44.7395C52.6922 44.6649 52.7295 44.5716 52.7295 44.4411C52.7295 44.3292 52.6922 44.2174 52.6176 44.1428C52.5431 44.0682 52.4498 44.0309 52.3379 44.0309V44.0309Z" fill="white"/>
<path d="M57.0567 40.0412C56.5346 39.9667 56.1244 39.8548 55.826 39.7056C55.5277 39.5564 55.3039 39.37 55.1734 39.1648C55.0429 38.9597 54.9683 38.7173 54.9683 38.4749C54.9683 38.0087 55.1361 37.6545 55.4904 37.4121C55.8447 37.1696 56.3109 37.0391 56.8889 37.0391C57.2059 37.0578 57.4856 37.0951 57.728 37.1883C57.9518 37.2815 58.1569 37.3934 58.3247 37.5426C58.4925 37.6918 58.623 37.8596 58.7349 38.0274C58.7909 38.1206 58.8841 38.1952 58.996 38.2325C59.1079 38.2698 59.2197 38.2698 59.3316 38.2139C59.4249 38.1393 59.4994 38.0647 59.5181 37.9528C59.5367 37.8409 59.5181 37.729 59.4435 37.6172C59.2943 37.3561 59.0892 37.1324 58.8468 36.9272C58.6044 36.7221 58.3247 36.5543 57.9891 36.4238C57.6534 36.2932 57.2991 36.2373 56.8889 36.2373C56.3481 36.2373 55.8633 36.3119 55.4531 36.4984C55.0242 36.6848 54.7072 36.9272 54.4648 37.2629C54.2224 37.5799 54.1105 37.9715 54.1105 38.419C54.1105 39.0343 54.3529 39.5564 54.8378 39.9853C55.3226 40.4142 55.9939 40.6939 56.8516 40.7871C57.5602 40.8803 58.0636 41.0855 58.3993 41.4025C58.7163 41.7381 58.8841 42.111 58.8841 42.5586C58.8841 42.9128 58.7909 43.2112 58.623 43.4536C58.4552 43.696 58.2128 43.8825 57.9145 44.013C57.6161 44.1435 57.2805 44.1995 56.8889 44.1995C56.5346 44.1995 56.2176 44.1622 55.9193 44.0689C55.6209 43.9757 55.3599 43.8452 55.1548 43.6774C54.9496 43.5095 54.7818 43.3044 54.6699 43.0993C54.614 43.0061 54.5394 42.9315 54.4462 42.8755C54.3529 42.8196 54.2411 42.801 54.1478 42.8383C54.0173 42.8755 53.9241 42.9501 53.8681 43.0434C53.8122 43.1366 53.8122 43.2485 53.8681 43.3604C54.0173 43.6774 54.2411 43.9757 54.5394 44.2181C54.8378 44.4605 55.192 44.6656 55.5836 44.7962C55.9939 44.9267 56.4227 45.0013 56.8889 45.0013C57.2805 45.0013 57.6534 44.9453 58.045 44.8521C58.3993 44.7402 58.6976 44.5724 58.9587 44.3673C59.2197 44.1622 59.4062 43.9011 59.5554 43.6028C59.6859 43.3044 59.7605 42.9501 59.7605 42.5586C59.7605 41.8686 59.5367 41.3092 59.0892 40.8803C58.6417 40.4515 57.9704 40.1718 57.0567 40.0412V40.0412Z" fill="white"/>
<path d="M65.2049 39.0902C64.832 38.9223 64.4218 38.8291 63.9742 38.8291C63.4148 38.8291 62.9114 38.9596 62.4825 39.2207C62.0536 39.5004 61.6993 39.8547 61.4569 40.3208C61.2145 40.787 61.084 41.3091 61.084 41.8872C61.084 42.4652 61.2145 42.9873 61.4756 43.4535C61.7366 43.9197 62.0909 44.2926 62.5384 44.5537C62.986 44.8147 63.5081 44.9452 64.0861 44.9452C64.8879 44.9452 65.5406 44.7028 66.0813 44.2367C66.1745 44.1621 66.2118 44.0688 66.1932 43.9756C66.1745 43.8637 66.1372 43.7705 66.044 43.6959C65.9694 43.6213 65.8762 43.6027 65.783 43.6027C65.6897 43.6027 65.5965 43.64 65.5033 43.7145C65.3168 43.8824 65.1117 43.9942 64.8693 44.0688C64.6269 44.1434 64.3658 44.1807 64.0861 44.1807C63.6572 44.1807 63.2843 44.0875 62.9487 43.8824C62.6317 43.6773 62.3706 43.3976 62.1841 43.0619C61.9977 42.7076 61.9044 42.3347 61.9044 41.8872C61.9044 41.4396 61.9977 41.0294 62.1655 40.6938C62.3333 40.3395 62.5757 40.0784 62.8927 39.8733C63.2097 39.6682 63.564 39.575 63.9742 39.575C64.6269 39.575 65.149 39.8174 65.5778 40.3022C65.6524 40.3954 65.7457 40.4514 65.8389 40.47C65.9321 40.4887 66.0254 40.47 66.1 40.4141C66.1932 40.3395 66.2678 40.2463 66.2864 40.153C66.3051 40.0598 66.2678 39.9666 66.1932 39.8733C65.9135 39.5377 65.5778 39.258 65.2049 39.0902V39.0902Z" fill="white"/>
<path d="M73.7264 41.8872C73.7264 41.3091 73.5772 40.787 73.3162 40.3208C73.0551 39.8547 72.6822 39.4817 72.2347 39.2207C71.7871 38.9596 71.265 38.8291 70.687 38.8291C70.1089 38.8291 69.5868 38.9596 69.1206 39.2207C68.6545 39.5004 68.2815 39.8547 68.0205 40.3208C67.7594 40.787 67.6289 41.3091 67.6289 41.8872C67.6289 42.4652 67.7594 42.9873 68.0205 43.4535C68.2815 43.9197 68.6358 44.2926 69.0834 44.5537C69.5309 44.8147 70.0343 44.9452 70.5937 44.9452C71.1159 44.9452 71.6007 44.8147 72.0109 44.5537C72.3652 44.3485 72.6635 44.0875 72.8873 43.7705V44.4791C72.8873 44.5909 72.9246 44.7028 72.9992 44.7774C73.0738 44.852 73.167 44.8893 73.2975 44.8893C73.428 44.8893 73.5213 44.852 73.6332 44.7774C73.7077 44.7028 73.745 44.6096 73.745 44.4791L73.7264 41.8872ZM72.5889 43.0619C72.4025 43.4162 72.1414 43.6773 71.8058 43.8824C71.4701 44.0875 71.0972 44.1807 70.6683 44.1807C70.2581 44.1807 69.8852 44.0688 69.5309 43.8824C69.1952 43.6773 68.9342 43.4162 68.7291 43.0619C68.524 42.7076 68.4307 42.316 68.4307 41.8872C68.4307 41.4396 68.524 41.0481 68.7291 40.7124C68.9342 40.3581 69.1952 40.0971 69.5309 39.892C69.8665 39.6869 70.2581 39.5936 70.6683 39.5936C71.0972 39.5936 71.4701 39.6869 71.8058 39.892C72.1228 40.0971 72.4025 40.3768 72.5889 40.7124C72.7941 41.0667 72.8873 41.4396 72.8873 41.8872C72.8873 42.3347 72.7754 42.7076 72.5889 43.0619Z" fill="white"/>
<path d="M79.6 39.1461C79.1898 38.941 78.7236 38.8291 78.2015 38.8291C77.7353 38.8291 77.3064 38.941 76.9149 39.1461C76.6352 39.2953 76.4114 39.4817 76.2063 39.7241V39.3326C76.2063 39.202 76.169 39.0902 76.0944 39.0156C76.0198 38.941 75.9266 38.9037 75.7961 38.9037C75.6655 38.9037 75.5537 38.941 75.4791 39.0156C75.4045 39.0902 75.3672 39.202 75.3672 39.3326V44.4791C75.3672 44.5909 75.4045 44.7028 75.4791 44.7774C75.5537 44.852 75.6655 44.8893 75.7961 44.8893C75.9266 44.8893 76.0198 44.852 76.0944 44.7774C76.169 44.7028 76.2063 44.6096 76.2063 44.4791V41.2345C76.2063 40.9362 76.2995 40.6565 76.4673 40.4141C76.6352 40.1717 76.8776 39.9666 77.1573 39.836C77.437 39.7055 77.7726 39.6309 78.1269 39.6309C78.4998 39.6309 78.8355 39.7055 79.1338 39.8547C79.4322 40.0038 79.6746 40.209 79.8424 40.5073C80.0102 40.8057 80.1035 41.1786 80.1035 41.6261V44.4791C80.1035 44.5909 80.1408 44.7028 80.2153 44.7774C80.2899 44.852 80.3832 44.8893 80.5137 44.8893C80.6256 44.8893 80.7188 44.852 80.812 44.7774C80.8866 44.7028 80.9239 44.5909 80.9239 44.4791V41.6261C80.9239 41.0294 80.812 40.5073 80.5696 40.0971C80.3272 39.6869 80.0102 39.3699 79.6 39.1461V39.1461Z" fill="white"/>
</svg>
